<svg viewBox="0 0 512 512" xmlns="http://www.w3.org/2000/svg"><path d="m69.945312 63.445312 17.941407 13.769532-1.15625 22.667968c-.292969 5.726563 2.628906 11.015626 7.632812 13.808594 2.28125 1.273438 4.78125 1.90625 7.273438 1.90625 2.949219 0 5.890625-.890625 8.441406-2.644531l18.554687-12.84375 21.140626 8.121094c5.335937 2.050781 11.253906.914062 15.453124-2.964844 4.207032-3.886719 5.808594-9.714844 4.183594-15.210937l-6.453125-21.710938 14.226563-17.648438c3.589844-4.457031 4.328125-10.453124 1.925781-15.648437-2.398437-5.1875-7.433594-8.507813-13.144531-8.65625l-22.558594-.5625-12.351562-19.027344s0 0 0-.003906c-3.117188-4.800781-8.585938-7.363281-14.265626-6.691406-5.679687.675781-10.390624 4.449219-12.296874 9.851562l-7.480469 21.34375-21.859375 5.882813c-5.515625 1.484375-9.632813 5.890625-10.75 11.5-1.117188 5.613281 1.007812 11.269531 5.542968 14.761718zm30.96875-17.664062c4.738282-1.273438 8.546876-4.804688 10.179688-9.441406l7.484375-21.214844 12.25 18.871094c2.675781 4.121094 7.203125 6.660156 12.113281 6.789062l22.484375.597656-14.148437 17.546876c-3.078125 3.816406-4.085938 8.910156-2.691406 13.617187l6.394531 21.617187-20.96875-8.058593c-4.589844-1.765625-9.746094-1.148438-13.796875 1.640625l-18.496094 12.746094 1.148438-22.511719c.25-4.902344-1.921876-9.617188-5.808594-12.609375l-17.863282-13.742188zm0 0"/><path d="m348.066406 146.871094c-2.636718 4.351562-2.570312 9.714844.179688 14.003906l9.039062 14.105469-6.550781 15.328125c-1.992187 4.660156-1.175781 9.949218 2.125 13.808594 3.320313 3.882812 8.460937 5.515624 13.417969 4.265624l16.347656-4.140624 12.757812 11.03125c2.480469 2.148437 5.566407 3.265624 8.707032 3.265624 1.75 0 3.515625-.347656 5.199218-1.054687 4.679688-1.96875 7.78125-6.335937 8.089844-11.390625l1.023438-16.636719 14.402344-8.554687c4.382812-2.597656 6.851562-7.363282 6.445312-12.433594-.410156-5.089844-3.625-9.421875-8.390625-11.300781l-15.695313-6.191407-3.804687-16.296874c-1.15625-4.945313-4.953125-8.746094-9.90625-9.917969-4.957031-1.175781-10.054687.519531-13.304687 4.421875l-10.710938 12.859375-16.804688-1.507813c-5.117187-.460937-9.917968 1.972656-12.566406 6.335938zm28.90625 10.191406c4.363282.394531 8.625-1.378906 11.417969-4.730469l9.128906-10.957031 3.242188 13.886719c.988281 4.253906 4.011719 7.746093 8.082031 9.351562l13.230469 5.21875-12.128907 7.203125c-3.777343 2.238282-6.191406 6.191406-6.460937 10.566406l-.863281 14.105469-10.832032-9.371093c-2.453124-2.121094-5.566406-3.25-8.738281-3.25-1.09375 0-2.191406.132812-3.273437.40625l-13.882813 3.515624 5.550781-12.992187c1.726563-4.03125 1.339844-8.648437-1.03125-12.347656l-7.609374-11.875zm0 0"/><path d="m512 361v-124c0-12.40625-10.09375-22.5-22.5-22.5s-22.5 10.09375-22.5 22.5v19c0 4.140625 3.355469 7.5 7.5 7.5s7.5-3.359375 7.5-7.5v-19c0-4.136719 3.363281-7.5 7.5-7.5s7.5 3.363281 7.5 7.5v124c0 4.136719-3.363281 7.5-7.5 7.5h-114c-4.136719 0-7.5-3.363281-7.5-7.5s3.363281-7.5 7.5-7.5h99c4.144531 0 7.5-3.359375 7.5-7.5v-58.167969c0-4.144531-3.355469-7.5-7.5-7.5s-7.5 3.355469-7.5 7.5v50.667969h-40.414062v-43.476562c0-15.175782-12.351563-27.523438-27.527344-27.523438h-79.039063c-3.257812-26.222656-23.347656-47.277344-49.09375-51.992188.6875-2.050781 1.074219-4.230468 1.074219-6.507812 0-11.304688-9.195312-20.5-20.5-20.5s-20.5 9.195312-20.5 20.5c0 2.273438.386719 4.457031 1.074219 6.507812-25.746094 4.714844-45.835938 25.769532-49.09375 51.992188h-63.871094c-15.175781 0-27.527344 12.347656-27.527344 27.523438v43.476562h-46.582031v-101.5c0-12.40625-10.09375-22.5-22.5-22.5s-22.5 10.09375-22.5 22.5v124c0 12.238281 9.824219 22.21875 22 22.484375v8.078125c0 4.140625 3.359375 7.5 7.5 7.5s7.5-3.359375 7.5-7.5v-8.0625h83v83.5h-83v-43.0625c0-4.144531-3.359375-7.5-7.5-7.5s-7.5 3.355469-7.5 7.5v43.074219c-12.175781.269531-22 10.25-22 22.488281 0 12.40625 10.09375 22.5 22.5 22.5h467c12.40625 0 22.5-10.09375 22.5-22.5 0-12.238281-9.824219-22.21875-22-22.488281v-83.523438c12.175781-.269531 22-10.25 22-22.488281zm-37 22.5v83.5h-83v-83.5zm-99.5 0h1.5v83.5h-98.5v-113.5h75.789062c-.832031 2.347656-1.289062 4.871094-1.289062 7.5 0 12.40625 10.09375 22.5 22.5 22.5zm-127-30h15v113.5h-15zm3-150c3.03125 0 5.5 2.464844 5.5 5.5 0 3.03125-2.46875 5.5-5.5 5.5s-5.5-2.46875-5.5-5.5c0-3.035156 2.46875-5.5 5.5-5.5zm-8.5 26h17c22.535156 0 41.296875 16.46875 44.882812 38h-106.765624c3.585937-21.53125 22.347656-38 44.882812-38zm-220.5 139c-4.136719 0-7.5-3.363281-7.5-7.5v-124c0-4.136719 3.363281-7.5 7.5-7.5s7.5 3.363281 7.5 7.5v109c0 4.140625 3.359375 7.5 7.5 7.5h99c4.136719 0 7.5 3.363281 7.5 7.5s-3.363281 7.5-7.5 7.5zm112.5 15h1.5c12.40625 0 22.5-10.09375 22.5-22.5 0-2.628906-.457031-5.152344-1.289062-7.5h34.289062c4.140625 0 7.5-3.359375 7.5-7.5 0-4.144531-3.359375-7.5-7.5-7.5h-85.414062v-43.476562c0-6.90625 5.617187-12.523438 12.523437-12.523438h279.949219c6.90625 0 12.527344 5.617188 12.527344 12.523438v43.476562h-187.585938c-4.140625 0-7.5 3.355469-7.5 7.5 0 4.140625 3.359375 7.5 7.5 7.5h9.5v113.5h-98.5zm362 106c0 4.136719-3.363281 7.5-7.5 7.5h-467c-4.136719 0-7.5-3.363281-7.5-7.5s3.363281-7.5 7.5-7.5h467c4.136719 0 7.5 3.363281 7.5 7.5zm0 0"/><path d="m104.320312 167.875c-15.164062 0-27.5 12.335938-27.5 27.5 0 15.160156 12.335938 27.5 27.5 27.5 15.164063 0 27.5-12.339844 27.5-27.5 0-15.164062-12.335937-27.5-27.5-27.5zm0 40c-6.894531 0-12.5-5.609375-12.5-12.5 0-6.894531 5.605469-12.5 12.5-12.5 6.894532 0 12.5 5.605469 12.5 12.5 0 6.890625-5.605468 12.5-12.5 12.5zm0 0"/><path d="m349.363281 93.589844c15.164063 0 27.5-12.335938 27.5-27.5 0-15.160156-12.335937-27.5-27.5-27.5-15.160156 0-27.5 12.339844-27.5 27.5 0 15.164062 12.339844 27.5 27.5 27.5zm0-40c6.894531 0 12.5 5.609375 12.5 12.5 0 6.894531-5.605469 12.5-12.5 12.5-6.890625 0-12.5-5.605469-12.5-12.5 0-6.890625 5.609375-12.5 12.5-12.5zm0 0"/></svg>